<svg xmlns="http://www.w3.org/2000/svg" xmlns:xlink="http://www.w3.org/1999/xlink" version="1.1" width="1000" height="1000" viewBox="0 0 1000 1000" xml:space="preserve">
<desc>Created with Fabric.js 3.5.0</desc>
<defs>
</defs>
<rect x="0" y="0" width="100%" height="100%" fill="rgba(255,255,255,0)"/>
<g transform="matrix(28.4091 0 0 28.4091 500.0001 500.0001)" id="796174">
<path style="stroke: none; stroke-width: 1; stroke-dasharray: none; stroke-linecap: butt; stroke-dashoffset: 0; stroke-linejoin: miter; stroke-miterlimit: 4; is-custom-font: none; font-file-url: none; fill: rgb(255,255,255); fill-rule: nonzero; opacity: 1;" vector-effect="non-scaling-stroke" transform=" translate(-16, -15.9939)" d="M 32 24.795 c -1.164 0.296 -1.884 0.013 -2.53 -0.957 l -4.594 -6.356 l -0.664 -0.88 l -5.365 7.257 c -0.613 0.873 -1.256 1.253 -2.4 0.944 l 6.87 -9.222 l -6.396 -8.33 c 1.1 -0.214 1.86 -0.105 2.535 0.88 l 4.765 6.435 l 4.8 -6.4 c 0.615 -0.873 1.276 -1.205 2.38 -0.883 l -2.48 3.288 l -3.36 4.375 c -0.4 0.5 -0.345 0.842 0.023 1.325 L 32 24.795 z M 0.008 15.427 l 0.562 -2.764 C 2.1 7.193 8.37 4.92 12.694 8.3 c 2.527 1.988 3.155 4.8 3.03 7.95 H 1.48 c -0.214 5.67 3.867 9.092 9.07 7.346 c 1.825 -0.613 2.9 -2.042 3.438 -3.83 c 0.273 -0.896 0.725 -1.036 1.567 -0.78 c -0.43 2.236 -1.4 4.104 -3.45 5.273 c -3.063 1.75 -7.435 1.184 -9.735 -1.248 C 1 21.6 0.434 19.812 0.18 17.9 c -0.04 -0.316 -0.12 -0.617 -0.18 -0.92 q 0.008 -0.776 0.008 -1.552 z m 1.498 -0.38 h 12.872 c -0.084 -4.1 -2.637 -7.012 -6.126 -7.037 c -3.83 -0.03 -6.58 2.813 -6.746 7.037 z" stroke-linecap="round"/>
</g>
</svg>