<svg xmlns="http://www.w3.org/2000/svg" xmlns:xlink="http://www.w3.org/1999/xlink" version="1.1" width="1000" height="1000" viewBox="0 0 1000 1000" xml:space="preserve">
<desc>Created with Fabric.js 3.5.0</desc>
<defs>
</defs>
<rect x="0" y="0" width="100%" height="100%" fill="rgba(255,255,255,0)"/>
<g transform="matrix(25 0 0 25 500 500)" id="812571">
<path style="stroke: none; stroke-width: 1; stroke-dasharray: none; stroke-linecap: butt; stroke-dashoffset: 0; stroke-linejoin: miter; stroke-miterlimit: 4; is-custom-font: none; font-file-url: none; fill: rgb(255,255,255); fill-rule: nonzero; opacity: 1;" vector-effect="non-scaling-stroke" transform=" translate(-16.0246, -16.0005)" d="M 14.319 9.028 c 0.35 -0.62 -1.443 -0.835 -0.235 -0.219 c 0.112 0.037 0.087 0.262 0.235 0.219 z M 4.542 3.761 c -0.762 -0.995 1.432 0.167 0.659 -0.875 c -0.652 -0.519 -1.278 0.585 -0.659 0.875 z M 6.138 5.011 c 1.082 -0.144 -0.275 -0.466 -0.217 -0.013 z M 5.283 4.806 c 0.232 -0.315 -0.407 0.16 0 0 z M 7.008 6.705 c 0.672 0.016 -0.289 -0.902 0.511 -0.487 c -0.131 -0.429 -0.932 -0.509 -1.325 -0.68 c -0.22 0.392 0.45 1.172 0.812 1.167 z M 4.916 6.619 c 0.575 -0.434 1.984 0.257 1.08 -0.431 c -0.087 -0.077 -1.982 0.522 -1.08 0.431 z M 4.326 7.747 c 1.007 -0.342 2.383 -0.726 2.858 0.169 c -0.484 -0.582 -0.195 -1.155 0.262 -0.304 c 0.645 0.861 0.968 -0.391 0.547 -0.681 c 0.479 0.595 1.023 0.875 0.321 0.037 c 0.762 -0.917 -1.528 0.121 -2.049 0.11 c -0.25 0.112 -2.588 0.596 -1.938 0.669 z M 6.2 10.881 c 0.246 -0.304 -0.337 -0.081 0 0 z M 5.613 12.452 c -0.06 -0.362 -0.175 0.192 0 0 z M 5.116 12.2 c 0.562 -0.037 0.882 -0.621 -0.109 -0.587 c -1.537 -0.159 1.355 0.525 -0.197 0.33 c -0.209 0.137 0.295 0.296 0.306 0.259 z M 29.116 27.445 c 0.696 0 2.109 -0.216 0.594 -0.216 c -0.237 0.038 -1.386 0.03 -0.595 0.216 z M 25.78 25.486 c 0.075 -0.51 -0.337 0.046 0 0 z M 28.395 27.273 c 0.015 -0.444 -0.38 0.2 0 0 z M 2.65 11.165 c 0.499 -0.381 -0.589 -0.145 0 0 z M 4.549 12.515 c 0.306 -0.325 -0.663 -0.132 0 0 z M 3.906 12.335 c 0.871 -0.534 -0.926 -0.462 0 0 z M 10.348 8.28 c 0.291 -0.765 1.132 -0.306 0.135 -0.154 c 0.021 0.081 -0.03 0.395 -0.135 0.154 z M 9.548 8.285 c -0.069 -1.517 1.398 0.54 0 0 z M 6.736 8.718 c 0.462 -0.555 2.618 -0.354 1.04 -0.054 c -0.422 -0.319 -0.747 0.187 -1.04 0.054 z M 6.541 8.848 c 0.277 -0.325 0.08 0.287 0 0 z M 5.782 9.154 c 0.04 -0.514 1.272 0.272 0.204 0.185 z M 5.226 9.144 c 0.437 -0.325 0.232 0.182 0 0 z M 5.167 9.687 c 0.304 -1.117 1.625 0.918 0.497 0.147 c -0.121 -0.095 -0.275 -0.152 -0.443 -0.152 c -0.019 0 -0.038 0.001 -0.057 0.002 l 0.002 0 z M 2.05 11.274 c -0.116 -0.669 -0.1 -1.842 1.015 -1.445 c -1.488 0.295 1.03 1.849 0.712 0.622 c 0.625 0.03 1.225 -0.37 0.895 0.237 c 1.233 -0.137 2.087 -1.205 3.279 -1.056 c 1.082 -0.09 2.082 -0.299 3.033 -0.615 l -0.091 0.026 c 0.822 -0.06 1.612 -0.945 1.162 -1.468 c -0.218 -0.013 -0.473 -0.021 -0.73 -0.021 c -0.993 0 -1.96 0.114 -2.888 0.329 l 0.086 -0.017 c -1.372 0.285 -2.619 0.827 -4.005 1.061 c -1.35 0.181 0.271 0.5 -0.115 0.57 c -0.705 0.245 0.84 0.41 -0.091 0.667 c -0.575 -0.11 -1.175 -0.307 -0.928 -0.912 c -1.293 0.166 -2.431 0.704 -1.408 2.019 h 0.075 z M 4.22 12.726 c 0.069 -0.475 -0.512 0.094 0 0 z M 26.941 27.412 c 0.165 -0.49 -0.417 0.062 0 0 z M 24.474 26.133 c 0.412 -0.379 -0.525 -0.117 0 0 z M 4.062 13.526 c 0.647 -0.254 -1.175 -0.525 -0.13 -0.05 z M 2.538 12.615 c -0.044 -0.4 -0.237 0.05 0 0 z M 2.263 12.823 c -0.025 -0.337 -0.18 0.127 0 0 z M 4.12 14.028 c -0.087 -0.731 -1.05 -0.11 0 0 z M 7.719 16.687 c 0.152 -0.14 -0.362 -0.104 0 0 z M 4.463 14.6 c -0.15 -0.121 -0.117 0.152 0 0 z M 3.946 14.347 c 0.011 -0.312 -0.829 -0.28 0 0 z M 3.041 14.119 c -0.172 -0.968 -0.656 -0.147 0 0 z M 6.836 16.754 c 0.011 -0.509 -0.396 -0.019 0 0 z M 23.985 27.436 c 0.64 -0.13 2.097 0.325 2.332 -0.17 c -0.775 -0.019 -2.687 -0.547 -2.777 0.125 l 0.17 0.029 z M 6.378 16.639 c -0.009 -0.166 -0.152 0.062 0 0 z M 4.933 15.939 c 0.499 -0.169 -0.459 -0.112 0 0 z M 16.467 23.725 c -0.009 -0.501 -0.494 0.125 0 0 z M 5.241 16.65 c 0.775 -0.3 -0.83 -0.212 0 0 z M 20.249 26.297 c 0.27 -0.2 -0.337 -0.025 0 0 z M 17.435 24.523 c -0.05 -0.194 -0.196 0.037 0 0 z M 17.093 24.274 c -0.135 -0.347 -0.535 -0.008 0 0 z M 9.994 19.796 c 0 -0.506 -0.906 -0.205 0 0 z M 9.174 19.606 c -0.332 -0.279 -0.016 -0.04 0 0 z M 3.771 16.275 c 0.115 -0.479 -1.066 -2.633 -0.557 -1.08 c 0.182 0.325 0.162 0.942 0.557 1.08 z M 6.715 18.599 c 0.646 0.145 2.582 1.592 1.44 0.1 c -0.585 -0.172 -0.234 -1.603 -0.831 -1.35 c 0.4 0.669 0.33 0.953 -0.512 0.532 c -1.056 -0.516 -0.592 0.255 -0.387 0.467 c -0.28 0.065 0.374 0.245 0.291 0.25 z M 22.891 29.012 c 0.482 -0.322 -0.586 -0.104 0 0 z M 21.166 27.865 c 0.717 -0.602 -0.759 0.266 0 0 z M 21.503 28.028 c 0.881 -0.637 -0.535 -0.122 -0.185 0.12 z M 11.639 22.174 c -0.181 -0.371 -0.28 0.059 0 0 z M 11.064 21.841 c -0.025 -0.3 -0.364 0.025 0 0 z M 20.399 27.727 c 0.689 -0.444 -0.157 -0.375 -0.125 0.04 z M 6.272 18.818 c 0.204 -0.302 -0.525 -0.039 0 0 z M 20.625 28.018 c 0.712 -0.61 -0.45 -0.128 0 0 z M 19.543 27.593 c 1.418 -0.917 -0.582 -0.4 0 0 z M 4.51 18.178 c -0.657 -0.937 -0.409 -1.36 -1.043 -2.124 c -0.12 -0.587 -1.087 -1.916 -0.5 -0.507 c 0.537 0.823 0.697 2.098 1.543 2.632 z M 19.784 27.853 c 0.771 -0.817 -0.747 0.049 0 0 z M 19.783 28.115 c 0.004 -0.187 -0.3 0.082 0 0 z M 18.333 27.121 c 0.697 -0.585 -0.675 0.26 0 0 z M 11.964 23.185 c 0.452 0.4 2.077 0.295 0.55 0.05 c -0.227 -0.337 -1.438 -0.255 -0.55 -0.05 z M 7.327 20.39 c -0.302 -0.502 -1.08 -0.455 0 0 z M 6.513 19.855 c -0.125 -0.491 -0.875 -0.487 0 0 z M 18.624 27.462 c 0.406 -0.394 0.016 0.629 0.675 -0.096 c 0.006 -0.519 -0.021 -0.825 -0.757 -0.195 c -0.202 0.112 -0.292 0.591 0.082 0.291 z M 17.861 27.141 c 0.025 -0.35 -0.241 0.3 0 0 z M 10.438 22.644 c 1.762 0.567 -0.864 -0.695 0 0 z M 8.988 21.811 c 0.425 0.316 1.6 0.898 0.605 0.12 c 0.336 -0.39 -0.642 -0.597 -0.317 -0.857 c -0.825 -0.505 -0.65 -0.46 -0.072 -0.445 c -0.992 -0.442 0.142 -0.41 0.087 -0.637 c -0.381 -0.075 -1.899 -0.675 -1.005 0.05 c -0.907 -0.462 -0.216 0.172 -0.49 0.105 c -0.928 -0.252 0.825 0.706 -0.147 0.469 c 0.531 0.421 1.432 1.08 0.225 0.446 c -0.16 0.229 0.862 0.575 1.115 0.75 z M 11.726 23.628 c 0.769 0.2 0.765 -0.119 0.069 -0.212 c -0.375 -0.35 -1.557 -0.719 -0.5 -0.044 c 0.071 0.177 0.294 0.174 0.43 0.257 z M 10.339 22.928 c -0.16 -0.139 0.02 0.087 0 0 z M 11.013 9.666 c 0.117 -0.144 0.025 0.174 0 0 z M 10.61 12.069 c -0.27 -0.475 0.34 -2.091 0.407 -1.087 c -0.284 0.781 -0.081 1.218 0.116 0.17 c 0.366 -0.825 -0.079 1.628 -0.525 0.918 z M 10.218 12.706 c -0.066 -0.4 0.225 0.505 0 0 z M 10.459 13.343 c -0.393 -0.97 0.365 0.512 0 0 z M 10.623 13.706 c -0.003 -0.209 0.054 0.302 0 0 z M 7.795 12.132 c 0.257 -0.542 0.475 0.604 0 0 z M 6.793 11.535 c 0.161 -0.069 0.085 0.215 0 0 z M 11.076 14.879 c 0.146 -1.18 0.129 0.691 0 0 z M 7.234 12.625 c 0.211 -0.31 -0.562 -1.4 0.111 -0.391 c 0.29 0.231 0.84 0.387 0.354 0.484 c 0.762 0.674 -0.187 0.182 -0.465 -0.092 z M 11.296 15.203 c 0.055 -1.037 0.31 -0.619 0.002 0.147 z M 6.848 12.985 c 0.519 -0.11 2.147 0.911 0.65 0.292 c -0.165 -0.185 -0.52 -0.1 -0.65 -0.293 z M 11.586 16.261 c 0.162 -0.577 0.012 0.381 0 0 z M 9.484 14.913 c -0.082 -1.012 0.184 0.167 0 0 z M 6.715 13.444 c -0.871 -1.203 2.533 1.216 0.559 0.305 c -0.206 -0.054 -0.455 -0.075 -0.559 -0.305 z M 11.521 16.702 c 0.067 -0.275 0.009 0.322 0 0 z M 11.771 16.95 c 0.06 -0.641 0.124 0.437 0 0 z M 10.334 16.1 c -0.587 -0.352 -0.154 -2.479 0.046 -1.025 c 0.571 -0.185 -0.031 0.75 0.394 0.742 c -0.066 0.591 -0.257 0.804 -0.437 0.282 z M 6.448 13.841 c -1.357 -1.207 1.706 0.632 0.221 0.225 z M 7.319 14.674 c -0.41 -0.771 0.5 0.322 0 0 z M 6.881 14.533 c 0.271 -0.269 0.144 0.265 0 0 z M 6.169 14.552 c -0.467 -0.462 -0.805 -0.891 0.021 -0.287 c 0.319 0.012 -0.707 -0.972 0.075 -0.312 c 0.825 0.15 0.409 1.352 -0.096 0.6 z M 7.524 15.601 c 0.27 -0.569 0.457 0.792 0 0 z M 6.961 15.408 c 0.05 -0.754 0.287 0.516 0 0 z M 8.215 16.271 c -0.262 -0.448 -0.417 -0.987 -0.417 -1.562 c 0 -0.001 0 -0.002 0 -0.003 v 0 c 0.095 0.472 1.005 2.033 0.446 0.647 c -0.617 -1.162 0.737 0.377 0.877 0.667 c 0.062 0.287 -0.381 -0.079 -0.08 0.597 c -0.55 -0.771 -0.325 0.425 -0.826 -0.347 z M 12.271 18.977 c -0.44 -0.987 0.312 -0.54 0.097 0.162 z M 9.919 18.222 c -0.194 -0.347 0.404 0.325 0 0 z M 12.658 20.128 c 0.168 -0.63 0.198 0.53 0 0 z M 8.78 18.026 c 0.274 -0.075 0.135 0.467 0 0 z M 13.653 21.39 c -0.465 -0.9 0.587 0.255 0 0 z M 14.056 21.931 c -0.012 -0.585 0.134 0.45 0 0 z M 18.687 25.45 c 0.231 -0.014 0.008 0.175 0 0 z M 14.64 22.879 c -0.37 -0.387 -0.466 -1.112 -0.066 -0.481 c 0.205 0.082 0.656 1.183 0.066 0.481 z M 15.883 26.388 c 0.966 -0.577 0.647 1.352 1.638 0.162 c 0.977 -0.712 -0.843 0.883 0.362 0.129 c 0.87 -0.584 2.157 0.275 2.969 0.556 c 0.585 -0.029 1.153 0.506 1.753 0.181 c 1.153 -0.312 -2.257 -0.462 -1.362 -1.012 c -0.138 0.031 -0.297 0.049 -0.46 0.049 c -0.805 0 -1.509 -0.435 -1.89 -1.082 l -0.006 -0.01 c -1.299 -0.215 -2.402 -0.92 -3.136 -1.914 l -0.009 -0.013 c -0.24 -0.394 0.35 0.055 -0.207 -0.587 c -0.606 -0.61 -1.123 -1.311 -1.527 -2.079 l -0.023 -0.047 c -0.571 -0.305 -0.637 -1.203 -0.696 -0.03 c 0.005 -0.741 -0.691 -1.24 -0.86 -1.032 c -0.002 -0.714 0.744 -0.356 0.22 -0.884 c -0.112 -0.74 -0.482 -1.512 -0.594 -2.346 c -0.172 -0.402 -0.025 -1.263 -0.591 -0.352 c -0.206 0.962 -0.069 -1.183 0.252 -0.475 c 0.421 -0.725 -0.15 -0.637 -0.175 -0.537 c 0.275 -0.61 0.175 -1.475 -0.071 -1.145 c 0.146 -0.646 0.231 -2.377 -0.219 -2.069 c 0.272 -0.675 0.517 -3.09 -0.667 -2.169 c -0.62 0.025 -1.202 0.159 -1.736 0.382 l 0.033 -0.012 c 1.232 0.679 -0.125 0.245 -0.625 0.137 c -0.065 0.627 -0.562 0.356 -1.182 0.362 c 0.991 0.122 -0.482 1.012 -1.051 0.667 c -0.737 0.352 0.637 1.233 0.015 1.506 c 0.075 0.41 -1.131 -0.15 -1.037 0.8 c -0.716 -0.301 -0.097 1.125 0.261 0.642 c 1.218 0.33 0.857 1.082 0.887 1.796 c -0.197 0.416 -0.98 -0.978 -0.175 -0.914 c -0.634 -1.033 -0.701 -0.375 -1.23 0.106 c -0.125 0.035 1.348 0.684 0.425 1.003 c 0.812 0.125 0.835 0.837 1 1.287 c 0.487 0.509 0.387 -0.562 0.973 0.05 c -0.37 -0.545 -1.958 -1.535 -0.68 -1.217 c -0.006 -0.55 -0.231 -0.991 0.161 -0.98 c 0.387 -0.702 -0.406 1.733 0.469 0.84 c 0.241 -0.106 0.3 -0.704 0.737 0.056 c 0.631 0.622 0.227 1.072 -0.664 0.504 c 0.159 0.541 1.192 0.734 0.998 1.581 c 0.206 0.744 0.494 0.47 0.745 0.427 c 0.197 0.722 0.309 0.191 0.319 -0.154 c 0.9 0.194 0.69 0.725 0.972 1.1 c 0.621 0.28 -0.89 -1.902 0.177 -0.657 c 1.122 1.012 0.421 1.437 -0.587 1.275 c 0.637 -0.051 0.844 0.862 1.641 0.83 c 0.727 0.346 1.218 1.675 -0.034 1.121 c -0.435 -0.391 -1.974 -0.875 -0.716 -0.13 c 1.282 0.525 2.335 1.039 3.35 1.611 l -0.15 -0.077 c 0.8 0.572 1.147 1.227 1.45 1.357 c -0.672 0.321 -2.028 -0.257 -1.021 -0.435 c -0.629 -0.114 -1.335 -0.431 -0.734 0.35 c 0.512 0.429 1.812 0.382 2.046 0.431 c -0.199 0.435 -0.537 0.47 0.008 0.504 c -0.607 0.325 0.195 0.375 0.251 0.56 z M 12.289 24.179 c 1.033 0.132 -1.231 -0.704 -0.226 -0.075 z M 15.045 26.05 c 0.897 -0.356 -0.875 -0.175 0 0 z M 9.746 22.754 c 0.575 -0.062 -0.925 -0.389 0 0 z M 12.877 24.744 c 0.075 -0.319 -0.66 -0.096 0 0 z M 17.456 27.709 c -0.012 -0.246 -0.229 0.094 0 0 z M 13.25 25.129 c -0.142 -0.162 -0.068 0.035 0 0 z M 6.493 20.836 c -0.096 -0.371 -0.842 -0.667 0 0 z M 9.067 22.501 c 0.775 -0.046 -1.06 -0.341 0 0 z M 11.239 24.068 c -0.08 -0.239 -0.42 -0.01 0 0 z M 17.025 27.637 c 0.035 -0.454 -0.441 0.337 0 0 z M 8.94 22.657 c -0.052 -0.25 -0.332 0.023 0 0 z M 14.743 26.356 c 1.35 0.012 -1.218 -0.184 0 0 z M 12.277 24.931 c 1.425 0.404 -1.197 -0.9 -0.351 -0.147 l 0.187 0.085 l 0.162 0.062 z M 13.507 25.91 c 0.241 -0.412 -1.018 -0.237 0 0 z M 9.458 23.438 c 0.582 0.447 2.349 0.057 0.892 -0.266 c -0.662 -0.354 -2.158 -0.595 -1.14 0.212 z M 12.687 25.653 c 0.537 -0.202 -0.87 -0.204 0 0 z M 11.48 24.912 c 0.375 -0.262 -0.776 -0.2 0 0 z M 10.043 24.075 c -0.05 -0.209 -0.77 -0.231 0 0 z M 14.943 27.892 c 0.496 0.312 2.899 0.687 1.393 0.129 c -0.25 0.052 -2.787 -0.717 -1.395 -0.129 z M 11.856 25.965 c -0.017 -0.207 -0.22 0.094 0 0 z M 11.239 25.657 c 0.609 -0.394 -0.787 -0.005 0 0 z M 13.947 27.548 c 0.239 -0.352 -0.762 -0.134 0 0 z M 12.538 26.761 c 0.39 -0.375 -0.605 -0.235 0 0 z M 11.714 26.417 c -0.067 -0.331 -0.3 0.185 0 0 z M 11.056 26.177 c 0.269 -0.12 -0.387 -0.15 0 0 z M 6.115 21.807 c 0.041 -0.182 0.221 0.396 0 0 z M 9.606 25.64 c 1.212 0.449 -0.005 -0.852 -0.562 -0.777 c -0.245 -0.426 -0.938 -0.696 -0.45 -0.925 c -0.88 0.305 -0.921 -1.162 -1.337 -0.953 c -0.93 -0.294 -0.362 -1.337 -1.47 -1.974 c -0.101 -0.675 -1.102 -1.26 -1.422 -2.277 c -0.141 -0.52 -1.131 -2.016 -0.522 -0.625 c 0.648 1.386 1.378 2.579 2.221 3.68 l -0.034 -0.047 c 0.545 1.179 1.346 2.158 2.336 2.898 l 0.02 0.014 c 0.362 0.348 0.71 0.879 1.221 0.987 z M 11.985 27.322 c 1.11 0.571 2.398 1.016 3.753 1.268 l 0.088 0.014 c 1.303 0.299 2.799 0.47 4.336 0.47 c 0.798 0 1.586 -0.046 2.36 -0.136 l -0.094 0.009 c -0.987 -0.446 -2.009 0.175 -2.993 -0.319 c -0.35 0.04 -0.756 0.062 -1.167 0.062 c -0.879 0 -1.734 -0.103 -2.553 -0.298 l 0.075 0.015 c -1.631 -0.594 -2.987 -1.206 -4.292 -1.902 l 0.179 0.087 c -1.596 -0.582 0.825 0.747 1.256 0.856 c 0.997 0.566 -1.096 -0.291 -1.392 -0.526 c -0.835 -0.469 -0.942 -0.371 -0.082 0.105 c 0.174 0.1 0.345 0.207 0.525 0.294 z M 9.967 26.447 c -1.228 -0.845 -2.28 -1.828 -3.171 -2.945 l -0.023 -0.029 c -1.676 -2.057 -3.041 -4.451 -3.971 -7.051 l -0.053 -0.168 c -0.557 -1.693 -0.75 -3.509 -1.467 -5.136 c -0.145 -0.266 -0.23 -0.583 -0.23 -0.92 c 0 -0.972 0.711 -1.779 1.641 -1.928 l 0.011 -0.001 c 0.575 -0.109 1.59 -0.652 0.366 -0.264 c -1.097 0.805 -1.203 -0.731 -0.079 -0.827 c 0.489 -0.005 0.884 -0.402 0.884 -0.892 c 0 -0.147 -0.036 -0.286 -0.099 -0.409 l 0.002 0.005 c -0.825 -0.537 1.999 -1.128 0.579 -1.929 c -1.478 -1.598 2.071 -1.904 1.196 -0.092 c -0.209 1.393 2.479 -0.256 1.856 1.353 c 0.634 0.774 2.374 0.175 2.331 1.261 c 0.925 0.062 1.241 0.84 2.108 0.9 c 0.9 0.406 2.527 0.725 2.832 1.737 c -0.891 0.707 -2.954 -1.456 -3.053 0.497 c 0.023 3.075 0.48 6.034 1.312 8.832 l -0.057 -0.225 c 0.67 1.664 1.62 3.085 2.804 4.271 l 0 0 c 1.079 1.202 2.376 2.182 3.834 2.884 l 0.074 0.032 c 1.16 0.548 2.508 0.98 3.918 1.228 l 0.097 0.014 c 0.56 -0.429 1.55 -2.021 2.422 -1.35 c 0.041 0.755 -1.735 1.578 -0.084 1.495 c 0.97 -0.292 1.642 0.75 2.441 -0.19 c 0.735 0.871 3.057 -0.557 2.533 1.225 c -0.707 0.455 -1.739 0.18 -2.448 0.807 c -1.168 -0.584 -2.099 0.522 -3.393 0.382 c -1.271 0.231 -2.734 0.363 -4.228 0.363 c -0.044 0 -0.089 0 -0.133 0 l 0.007 0 c -2.548 -0.045 -4.986 -0.444 -7.29 -1.149 l 0.187 0.049 c -1.394 -0.471 -2.603 -1.091 -3.7 -1.86 l 0.046 0.031 z" stroke-linecap="round"/>
</g>
</svg>