<svg xmlns="http://www.w3.org/2000/svg" xmlns:xlink="http://www.w3.org/1999/xlink" version="1.1" width="1000" height="1000" viewBox="0 0 1000 1000" xml:space="preserve">
<desc>Created with Fabric.js 3.5.0</desc>
<defs>
</defs>
<rect x="0" y="0" width="100%" height="100%" fill="rgba(255,255,255,0)"/>
<g transform="matrix(2.2965 0 0 2.2965 500.0007 500.0008)" id="261583">
<path style="stroke: none; stroke-width: 1; stroke-dasharray: none; stroke-linecap: butt; stroke-dashoffset: 0; stroke-linejoin: miter; stroke-miterlimit: 4; is-custom-font: none; font-file-url: none; fill: rgb(255,255,255); fill-rule: evenodd; opacity: 1;" vector-effect="non-scaling-stroke" transform=" translate(-199.997, -190.178)" d="M 2.329 189.896 L 2.591 375.648 L 22.798 375.648 L 43.005 375.648 L 43.005 371.503 L 43.005 367.358 L 27.202 367.071 L 11.399 366.785 L 11.399 189.61 L 11.399 12.435 L 27.461 12.435 L 43.523 12.435 L 43.523 8.29 L 43.523 4.145 L 22.795 4.145 L 2.067 4.145 L 2.329 189.896 M 357.513 8.29 L 357.513 12.435 L 373.575 12.435 L 389.637 12.435 L 389.637 189.637 L 389.637 366.839 L 373.516 366.839 L 357.394 366.839 L 357.712 371.244 L 358.031 375.648 L 377.979 375.929 L 397.927 376.211 L 397.927 190.178 L 397.927 4.145 L 377.72 4.145 L 357.513 4.145 L 357.513 8.29 M 311.835 32.234 C 293.241 34.993 284.01 52.489 284.01 84.974 C 284.01 120.539 294.28 137.306 316.062 137.306 C 338.614 137.306 348.659 121.161 348.621 84.974 C 348.581 47.135 335.717 28.691 311.835 32.234 M 82.358 35.349 C 77.792 38.696 69.081 41.419 62.881 41.438 C 59.372 41.449 58.961 41.715 59.254 43.782 C 59.645 46.534 67.304 46.62 74.851 43.957 C 77.143 43.148 79.192 42.487 79.405 42.487 C 79.618 42.487 79.793 61.347 79.793 84.397 L 79.793 126.307 L 77.49 127.921 C 75.917 129.022 72.793 129.534 67.645 129.534 C 60.292 129.534 60.104 129.598 60.104 132.124 L 60.104 134.715 L 85.564 134.715 L 111.025 134.715 L 110.694 132.383 C 110.388 130.229 109.708 130.012 101.773 129.534 C 90.365 128.846 91.226 132.96 91.208 79.016 L 91.192 32.124 L 88.86 32.208 C 87.578 32.255 84.652 33.668 82.358 35.349 M 324.791 37.722 C 334.314 43.303 336.139 51.93 335.496 88.326 C 334.883 123.027 331.819 131.99 319.797 134.245 C 306.931 136.659 299.367 127.229 297.335 106.244 C 292.178 52.985 303.332 25.147 324.791 37.722 M 79.71 217.726 C 61.116 220.485 51.886 237.981 51.886 270.466 C 51.886 306.031 62.155 322.798 83.938 322.798 C 106.49 322.798 116.535 306.653 116.496 270.466 C 116.457 232.627 103.592 214.183 79.71 217.726 M 314.482 220.842 C 309.917 224.188 301.205 226.911 295.006 226.931 C 291.497 226.942 291.085 227.207 291.379 229.275 C 291.77 232.026 299.428 232.112 306.976 229.449 C 309.267 228.641 311.316 227.979 311.529 227.979 C 311.743 227.979 311.917 246.839 311.917 269.889 L 311.917 311.8 L 309.614 313.413 C 308.042 314.514 304.918 315.026 299.769 315.026 C 292.416 315.026 292.228 315.091 292.228 317.617 L 292.228 320.207 L 317.689 320.207 L 343.149 320.207 L 342.818 317.876 C 342.512 315.722 341.833 315.505 333.897 315.026 C 322.49 314.338 323.35 318.452 323.332 264.508 L 323.316 217.617 L 320.984 217.701 C 319.702 217.747 316.776 219.16 314.482 220.842 M 92.666 223.214 C 102.19 228.796 104.015 237.422 103.372 273.818 C 102.758 308.519 99.694 317.482 87.673 319.737 C 74.807 322.151 67.243 312.722 65.211 291.737 C 60.053 238.477 71.208 210.639 92.666 223.214" stroke-linecap="round"/>
</g>
</svg>