<svg xmlns="http://www.w3.org/2000/svg" xmlns:xlink="http://www.w3.org/1999/xlink" version="1.1" width="1000" height="1000" viewBox="0 0 1000 1000" xml:space="preserve">
<desc>Created with Fabric.js 3.5.0</desc>
<defs>
</defs>
<rect x="0" y="0" width="100%" height="100%" fill="rgba(255,255,255,0)"/>
<g transform="matrix(1 0 0 1 503.2845 498.1438)" id="306728">
<g style="" vector-effect="non-scaling-stroke">
		<g transform="matrix(15.3208 0 0 15.3208 0.0015 0.0015)" id="449807">
<path style="stroke: none; stroke-width: 1; stroke-dasharray: none; stroke-linecap: butt; stroke-dashoffset: 0; stroke-linejoin: miter; stroke-miterlimit: 4; is-custom-font: none; font-file-url: none; fill: rgb(255,108,55); fill-rule: nonzero; opacity: 1;" transform=" translate(-31.9998, -31.998)" d="M 57.327 12.44 a 32 32 0 1 0 -5.761 44.88 c 13.98 -10.804 16.56 -30.895 5.76 -44.88 z" stroke-linecap="round"/>
</g>
		<g transform="matrix(15.3208 0 0 15.3208 32.7981 -85.2607)" id="951084">
<path style="stroke: none; stroke-width: 1; stroke-dasharray: none; stroke-linecap: butt; stroke-dashoffset: 0; stroke-linejoin: miter; stroke-miterlimit: 4; is-custom-font: none; font-file-url: none; fill: rgb(255,255,255); fill-rule: nonzero; opacity: 1;" transform=" translate(-34.1405, -26.4329)" d="M 42.793 20.388 L 29.3 33.988 l -3.813 -3.92 c 13.28 -13.28 14.613 -12.08 17.307 -9.68 z" stroke-linecap="round"/>
</g>
		<g transform="matrix(15.3208 0 0 15.3208 32.8101 -86.1004)" id="116826">
<path style="stroke: none; stroke-width: 1; stroke-dasharray: none; stroke-linecap: butt; stroke-dashoffset: 0; stroke-linejoin: miter; stroke-miterlimit: 4; is-custom-font: none; font-file-url: none; fill: rgb(255,108,55); fill-rule: nonzero; opacity: 1;" transform=" translate(-34.1413, -26.3781)" d="M 29.3 34.36 a 0.48 0.48 0 0 1 -0.32 -0.133 l -3.84 -3.84 a 0.48 0.48 0 0 1 0 -0.667 c 13.093 -13.093 14.88 -12.48 17.973 -9.68 a 0.427 0.427 0 0 1 0.16 0.347 c 0.02 0.13 -0.03 0.263 -0.133 0.347 L 29.647 34.228 a 0.506 0.506 0 0 1 -0.347 0.133 z m -3.147 -4.293 l 3.147 3.147 l 12.8 -12.8 a 2.88 2.88 0 0 0 -3.787 -0.64 c -2.32 1.04 -6.053 4.213 -12.16 10.293 z" stroke-linecap="round"/>
</g>
		<g transform="matrix(15.3208 0 0 15.3208 73.6943 -42.8512)" id="210116">
<path style="stroke: none; stroke-width: 1; stroke-dasharray: none; stroke-linecap: butt; stroke-dashoffset: 0; stroke-linejoin: miter; stroke-miterlimit: 4; is-custom-font: none; font-file-url: none; fill: rgb(255,255,255); fill-rule: nonzero; opacity: 1;" transform=" translate(-36.8098, -29.201)" d="M 33.167 37.748 l -3.68 -3.76 L 42.98 20.654 c 3.627 3.547 -1.76 9.467 -9.813 17.093 z" stroke-linecap="round"/>
</g>
		<g transform="matrix(15.3208 0 0 15.3208 73.9476 -44.1017)" id="171885">
<path style="stroke: none; stroke-width: 1; stroke-dasharray: none; stroke-linecap: butt; stroke-dashoffset: 0; stroke-linejoin: miter; stroke-miterlimit: 4; is-custom-font: none; font-file-url: none; fill: rgb(255,108,55); fill-rule: nonzero; opacity: 1;" transform=" translate(-36.8264, -29.1194)" d="M 33.167 38.228 a 0.56 0.56 0 0 1 -0.32 -0.133 l -3.76 -3.68 a 0.56 0.56 0 0 1 0 -0.427 a 0.517 0.517 0 0 1 0 -0.347 L 42.58 20.148 a 0.506 0.506 0 0 1 0.693 0 a 4.136 4.136 0 0 1 1.333 3.173 c 0 3.6 -4.107 8.133 -11.093 14.747 a 0.56 0.56 0 0 1 -0.347 0.16 z m -2.987 -4.24 L 33.193 37 c 5.333 -5.04 10.427 -10.24 10.453 -13.76 a 3.04 3.04 0 0 0 -0.693 -2.053 z" stroke-linecap="round"/>
</g>
		<g transform="matrix(15.3208 0 0 15.3208 -104.9303 2.8045)" id="403217">
<path style="stroke: none; stroke-width: 1; stroke-dasharray: none; stroke-linecap: butt; stroke-dashoffset: 0; stroke-linejoin: miter; stroke-miterlimit: 4; is-custom-font: none; font-file-url: none; fill: rgb(255,255,255); fill-rule: nonzero; opacity: 1;" transform=" translate(-25.1509, -32.181)" d="M 25.593 30.148 l 2.667 2.667 a 0.16 0.16 0 0 1 0 0.24 l -5.627 1.2 a 0.533 0.533 0 0 1 -0.48 -0.907 l 3.28 -3.253 s 0.107 0 0.16 0.053 z" stroke-linecap="round"/>
</g>
		<g transform="matrix(15.3208 0 0 15.3208 -105.2161 3.2958)" id="455499">
<path style="stroke: none; stroke-width: 1; stroke-dasharray: none; stroke-linecap: butt; stroke-dashoffset: 0; stroke-linejoin: miter; stroke-miterlimit: 4; is-custom-font: none; font-file-url: none; fill: rgb(255,108,55); fill-rule: nonzero; opacity: 1;" transform=" translate(-25.1322, -32.2131)" d="M 22.5 34.788 a 1.04 1.04 0 0 1 -0.88 -0.507 a 1.014 1.014 0 0 1 0.187 -1.2 l 3.253 -3.28 a 0.64 0.64 0 0 1 0.853 0 l 2.667 2.667 c 0.158 0.15 0.22 0.377 0.16 0.587 s -0.236 0.377 -0.453 0.427 l -5.627 1.2 z m 2.987 -4.053 l -3.013 3.013 l 4.987 -1.067 z m 0.24 -0.24 z" stroke-linecap="round"/>
</g>
		<g transform="matrix(15.3208 0 0 15.3208 208.1152 -235.6517)" id="836773">
<path style="stroke: none; stroke-width: 1; stroke-dasharray: none; stroke-linecap: butt; stroke-dashoffset: 0; stroke-linejoin: miter; stroke-miterlimit: 4; is-custom-font: none; font-file-url: none; fill: rgb(255,255,255); fill-rule: nonzero; opacity: 1;" transform=" translate(-45.5836, -16.6167)" d="M 49.967 12.894 c -1.93 -1.862 -4.962 -1.94 -6.986 -0.183 s -2.37 4.773 -0.794 6.943 s 4.547 2.778 6.847 1.4 l -3.627 -3.627 z" stroke-linecap="round"/>
</g>
		<g transform="matrix(15.3208 0 0 15.3208 209.5835 -235.1359)" id="884539">
<path style="stroke: none; stroke-width: 1; stroke-dasharray: none; stroke-linecap: butt; stroke-dashoffset: 0; stroke-linejoin: miter; stroke-miterlimit: 4; is-custom-font: none; font-file-url: none; fill: rgb(255,108,55); fill-rule: nonzero; opacity: 1;" transform=" translate(-45.6795, -16.6504)" d="M 46.367 22.28 a 5.65 5.65 0 0 1 -5.156 -3.508 a 5.667 5.667 0 0 1 1.2 -6.118 a 5.71 5.71 0 0 1 8 0 c 0.102 0.086 0.16 0.213 0.16 0.347 a 0.46 0.46 0 0 1 -0.16 0.347 l -4.32 4.08 l 3.28 3.227 a 0.45 0.45 0 0 1 0.133 0.4 a 0.48 0.48 0 0 1 -0.213 0.347 a 5.8 5.8 0 0 1 -2.933 0.88 z m 0 -10.347 c -1.9 0.01 -3.6 1.153 -4.313 2.9 s -0.325 3.758 1.007 5.1 a 4.665 4.665 0 0 0 5.173 0.987 l -3.147 -3.147 a 0.427 0.427 0 0 1 0 -0.667 l 4.16 -4.187 a 4.785 4.785 0 0 0 -2.88 -0.987 z" stroke-linecap="round"/>
</g>
		<g transform="matrix(15.3208 0 0 15.3208 253.3553 -228.9526)" id="359711">
<path style="stroke: none; stroke-width: 1; stroke-dasharray: none; stroke-linecap: butt; stroke-dashoffset: 0; stroke-linejoin: miter; stroke-miterlimit: 4; is-custom-font: none; font-file-url: none; fill: rgb(255,255,255); fill-rule: nonzero; opacity: 1;" transform=" translate(-48.5365, -17.054)" d="M 50.047 12.974 l -4.56 4.533 l 3.627 3.627 a 5.52 5.52 0 0 0 1.013 -0.747 a 5.333 5.333 0 0 0 -0.08 -7.413 z" stroke-linecap="round"/>
</g>
		<g transform="matrix(15.3208 0 0 15.3208 252.9911 -229.8385)" id="216253">
<path style="stroke: none; stroke-width: 1; stroke-dasharray: none; stroke-linecap: butt; stroke-dashoffset: 0; stroke-linejoin: miter; stroke-miterlimit: 4; is-custom-font: none; font-file-url: none; fill: rgb(255,108,55); fill-rule: nonzero; opacity: 1;" transform=" translate(-48.5127, -16.9962)" d="M 49.033 21.534 a 0.4 0.4 0 0 1 -0.32 -0.133 l -3.627 -3.627 a 0.427 0.427 0 0 1 0 -0.667 l 4.533 -4.453 a 0.48 0.48 0 0 1 0.8 0 a 5.6 5.6 0 0 1 0 8 a 4.88 4.88 0 0 1 -1.067 0.853 a 0.43 0.43 0 0 1 -0.32 0.027 z M 46.1 17.428 l 3.013 3.013 a 5.12 5.12 0 0 0 0.587 -0.48 a 4.72 4.72 0 0 0 1.387 -3.333 a 4.58 4.58 0 0 0 -1.147 -3.04 z" stroke-linecap="round"/>
</g>
		<g transform="matrix(15.3208 0 0 15.3208 65.8528 -65.4875)" id="333864">
<path style="stroke: none; stroke-width: 1; stroke-dasharray: none; stroke-linecap: butt; stroke-dashoffset: 0; stroke-linejoin: miter; stroke-miterlimit: 4; is-custom-font: none; font-file-url: none; fill: rgb(255,255,255); fill-rule: nonzero; opacity: 1;" transform=" translate(-36.298, -27.7235)" d="M 43.353 20.948 a 1.948 1.948 0 0 0 -2.667 0 L 28.607 33 l 2 2.027 l 12.773 -11.2 a 1.977 1.977 0 0 0 -0.027 -2.88 z" stroke-linecap="round"/>
</g>
		<g transform="matrix(15.3208 0 0 15.3208 64.6531 -65.4891)" id="877173">
<path style="stroke: none; stroke-width: 1; stroke-dasharray: none; stroke-linecap: butt; stroke-dashoffset: 0; stroke-linejoin: miter; stroke-miterlimit: 4; is-custom-font: none; font-file-url: none; fill: rgb(255,108,55); fill-rule: nonzero; opacity: 1;" transform=" translate(-36.2197, -27.7234)" d="M 30.5 35.508 a 0.48 0.48 0 0 1 -0.32 -0.133 l -2.027 -2.027 a 0.48 0.48 0 0 1 0 -0.667 l 12.08 -12.027 a 2.454 2.454 0 0 1 4.187 1.813 a 2.51 2.51 0 0 1 -0.827 1.76 l -12.773 11.2 a 0.455 0.455 0 0 1 -0.32 0.08 z M 29.087 33 l 1.333 1.36 l 12.533 -10.907 c 0.31 -0.27 0.495 -0.656 0.507 -1.067 s -0.15 -0.813 -0.453 -1.093 a 1.493 1.493 0 0 0 -2.107 0 z" stroke-linecap="round"/>
</g>
		<g transform="matrix(15.3208 0 0 15.3208 -122.0486 162.1475)" id="767747">
<path style="stroke: none; stroke-width: 1; stroke-dasharray: none; stroke-linecap: butt; stroke-dashoffset: 0; stroke-linejoin: miter; stroke-miterlimit: 4; is-custom-font: none; font-file-url: none; fill: rgb(255,255,255); fill-rule: nonzero; opacity: 1;" transform=" translate(-24.0335, -42.5815)" d="M 19.247 46.734 a 0.27 0.27 0 0 0 0 0.32 l 0.533 2.32 a 0.688 0.688 0 0 1 -0.332 0.7 a 0.65 0.65 0 0 1 -0.762 -0.077 l -3.653 -3.52 L 26.42 35 h 3.947 l 2.667 2.667 a 60.54 60.54 0 0 1 -13.787 9.067 z" stroke-linecap="round"/>
</g>
		<g transform="matrix(15.3208 0 0 15.3208 -122.0189 162.0295)" id="860207">
<path style="stroke: none; stroke-width: 1; stroke-dasharray: none; stroke-linecap: butt; stroke-dashoffset: 0; stroke-linejoin: miter; stroke-miterlimit: 4; is-custom-font: none; font-file-url: none; fill: rgb(255,108,55); fill-rule: nonzero; opacity: 1;" transform=" translate(-24.0354, -42.5738)" d="M 19.007 50.654 c -0.302 -0.006 -0.6 -0.13 -0.8 -0.347 l -3.493 -3.493 a 0.427 0.427 0 0 1 0 -0.667 L 26.18 34.654 a 0.45 0.45 0 0 1 0.24 -0.133 h 3.973 a 0.48 0.48 0 0 1 0.32 0 l 2.667 2.667 a 0.426 0.426 0 0 1 0.133 0.373 a 0.43 0.43 0 0 1 -0.16 0.347 l -0.213 0.187 a 65.33 65.33 0 0 1 -13.68 8.773 l 0.507 2.16 a 1.15 1.15 0 0 1 -1.093 1.413 z m -3.253 -4.187 L 18.9 49.64 a 0.16 0.16 0 0 0 0.213 0 a 0.16 0.16 0 0 0 0 -0.187 l -0.533 -2.32 a 0.744 0.744 0 0 1 0.4 -0.853 a 65.56 65.56 0 0 0 13.333 -8.587 l -2.187 -2.187 h -3.573 z m 3.84 0.48 z" stroke-linecap="round"/>
</g>
		<g transform="matrix(15.3208 0 0 15.3208 -252.0478 254.3631)" id="811306">
<path style="stroke: none; stroke-width: 1; stroke-dasharray: none; stroke-linecap: butt; stroke-dashoffset: 0; stroke-linejoin: miter; stroke-miterlimit: 4; is-custom-font: none; font-file-url: none; fill: rgb(255,255,255); fill-rule: nonzero; opacity: 1;" transform=" translate(-15.5483, -48.6005)" d="M 12.287 49.214 l 2.667 -2.667 l 4.107 4.107 l -6.533 -0.453 a 0.534 0.534 0 0 1 -0.24 -0.986 z" stroke-linecap="round"/>
</g>
		<g transform="matrix(15.3208 0 0 15.3208 -251.1913 253.9436)" id="750129">
<path style="stroke: none; stroke-width: 1; stroke-dasharray: none; stroke-linecap: butt; stroke-dashoffset: 0; stroke-linejoin: miter; stroke-miterlimit: 4; is-custom-font: none; font-file-url: none; fill: rgb(255,108,55); fill-rule: nonzero; opacity: 1;" transform=" translate(-15.6042, -48.5731)" d="M 19.14 51.054 l -6.507 -0.453 c -0.386 -0.036 -0.718 -0.3 -0.854 -0.653 s -0.053 -0.772 0.214 -1.054 l 2.667 -2.667 a 0.48 0.48 0 0 1 0.667 0 l 4.08 4.08 a 0.452 0.452 0 0 1 0 0.533 a 0.507 0.507 0 0 1 -0.267 0.213 z m -6.507 -1.493 l 5.333 0.347 l -2.933 -2.747 z" stroke-linecap="round"/>
</g>
		<g transform="matrix(15.3208 0 0 15.3208 -60.5668 39.9033)" id="574046">
<path style="stroke: none; stroke-width: 1; stroke-dasharray: none; stroke-linecap: butt; stroke-dashoffset: 0; stroke-linejoin: miter; stroke-miterlimit: 4; is-custom-font: none; font-file-url: none; fill: rgb(255,255,255); fill-rule: nonzero; opacity: 1;" transform=" translate(-28.0465, -34.6025)" d="M 30.74 35.322 l -5.387 0.827 l 3.12 -3.093 z" stroke-linecap="round"/>
</g>
		<g transform="matrix(15.3208 0 0 15.3208 -62.1377 40.255)" id="256641">
<path style="stroke: none; stroke-width: 1; stroke-dasharray: none; stroke-linecap: butt; stroke-dashoffset: 0; stroke-linejoin: miter; stroke-miterlimit: 4; is-custom-font: none; font-file-url: none; fill: rgb(255,108,55); fill-rule: nonzero; opacity: 1;" transform=" translate(-27.944, -34.6255)" d="M 25.353 36.654 a 0.456 0.456 0 0 1 -0.427 -0.267 a 0.45 0.45 0 0 1 0 -0.533 l 3.093 -3.12 a 0.506 0.506 0 0 1 0.693 0 L 30.98 35 a 0.45 0.45 0 0 1 0 0.48 a 0.47 0.47 0 0 1 -0.373 0.347 l -5.333 0.827 z m 3.12 -2.907 L 26.74 35.48 l 2.987 -0.453 z" stroke-linecap="round"/>
</g>
		<g transform="matrix(15.3208 0 0 15.3208 -52.5944 37.2984)" id="794184">
<path style="stroke: none; stroke-width: 1; stroke-dasharray: none; stroke-linecap: butt; stroke-dashoffset: 0; stroke-linejoin: miter; stroke-miterlimit: 4; is-custom-font: none; font-file-url: none; fill: rgb(255,255,255); fill-rule: nonzero; opacity: 1;" transform=" translate(-28.5669, -34.4325)" d="M 30.74 35.32 l -3.76 0.48 a 0.48 0.48 0 0 1 -0.453 -0.8 l 1.947 -1.947 z" stroke-linecap="round"/>
</g>
		<g transform="matrix(15.3208 0 0 15.3208 93.0493 -90.7133)" id="739348">
<path style="stroke: none; stroke-width: 1; stroke-dasharray: none; stroke-linecap: butt; stroke-dashoffset: 0; stroke-linejoin: miter; stroke-miterlimit: 4; is-custom-font: none; font-file-url: none; fill: rgb(255,108,55); fill-rule: nonzero; opacity: 1;" transform=" translate(-38.0731, -26.077)" d="M 26.873 36.308 a 0.987 0.987 0 0 1 -0.853 -0.507 a 0.96 0.96 0 0 1 0.16 -1.147 l 1.947 -1.947 a 0.506 0.506 0 0 1 0.693 0 l 2.267 2.267 a 0.48 0.48 0 0 1 -0.293 0.827 l -3.733 0.48 z m 0 -0.987 l 2.827 -0.347 l -1.253 -1.253 l -1.6 1.6 z m 23.2 -19.28 a 0.4 0.4 0 0 0 -0.507 -0.16 a 0.37 0.37 0 0 0 -0.186 0.22 a 0.377 0.377 0 0 0 0.026 0.287 c 0.187 0.393 0.135 0.858 -0.133 1.2 a 0.338 0.338 0 0 0 -0.1 0.253 a 0.38 0.38 0 0 0 0.1 0.253 a 0.29 0.29 0 0 0 0.213 0 a 0.35 0.35 0 0 0 0.347 -0.107 a 1.84 1.84 0 0 0 0.24 -1.947 z" stroke-linecap="round"/>
</g>
</g>
</g>
</svg>